<?xml version="1.0" encoding="utf-8"?>

<!DOCTYPE svg PUBLIC "-//W3C//DTD SVG 1.1//EN" "http://www.w3.org/Graphics/SVG/1.1/DTD/svg11.dtd">
<!-- Uploaded to: SVG Repo, www.svgrepo.com, Generator: SVG Repo Mixer Tools -->
<svg height="800px" width="800px" version="1.1" id="_x32_" xmlns="http://www.w3.org/2000/svg" xmlns:xlink="http://www.w3.org/1999/xlink" 
	 viewBox="0 0 512 512"  xml:space="preserve">
<style type="text/css">
	.st0{fill:#000000;}
</style>
<g>
	<path class="st0" d="M446.078,252.263c8.371-99.776-134.399-179.166-176.062-187.672c-66.235-13.519-74.346-9.464-114.896-39.204
		c-9.464-31.094-67.581-36.496-81.101,0C13.194,32.142,1.302,45.646,2.383,67.291c1.35,27.031,39.667,49.698,62.176,74.345
		c24.877,27.245,60.136,71.098,88.49,106.096c-13.709,3.722-40.875,2.336-55.772-1.26c-1.75-6.264-7.437-10.882-14.252-10.882
		c-8.213,0-14.867,6.653-14.867,14.866c0,8.206,6.654,14.874,14.867,14.874c3.837,0,7.301-1.496,9.939-3.889
		c14.747,2.265,37.422,2.97,42.523,3.62c6.894,0.879,7.88,9.512-9.294,15.096c-12.727,4.15-28.556,3.421-39.16,2.272
		c-2.673-2.558-6.276-4.15-10.268-4.15c-8.217,0-14.87,6.653-14.87,14.866s6.653,14.866,14.87,14.866
		c6.078,0,11.29-3.658,13.591-8.886c18.774,0.309,50.189-3.057,60.355-9.242c12.96-7.889-8.962,19.079-24.79,20.917
		c-1.524-0.523-3.132-0.871-4.835-0.871c-8.209,0-14.866,6.653-14.866,14.866c0,8.197,6.657,14.866,14.866,14.866
		c7.706,0,13.967-5.893,14.716-13.393c11.939-8.76,29.612-27.372,42.772-48.629c14.925,15.507,32.084,29.375,51.868,41.208
		c-6.918,20.164-13.967,36.891-19.166,40.091c-13.662,8.404-49.31,13.995-65.973,12.64c-2.479-4.436-7.049-7.595-12.494-8.015
		c-8.649-0.673-16.2,5.798-16.869,14.43c-0.67,8.649,5.793,16.213,14.438,16.886c5.382,0.411,10.332-1.941,13.473-5.861
		c16.061-0.388,44.356-5.662,50.454-6.194c7.61-0.665,10.683,8.388-6.471,18.407c-13.61,7.936-32.25,10.683-43.845,11.768
		c-2.123-1.37-4.566-2.312-7.263-2.518c-8.649-0.665-16.2,5.797-16.869,14.438c-0.67,8.648,5.793,16.204,14.438,16.877
		c7.533,0.578,14.224-4.253,16.268-11.223c19.785-3.454,55.9-15.112,65.886-24.615c11.417-10.866-3.338,18.968-18.98,27.086
		c-0.658-0.135-1.303-0.301-1.992-0.356c-8.649-0.673-16.201,5.789-16.87,14.43c-0.673,8.649,5.79,16.204,14.442,16.877
		c8.641,0.673,16.193-5.797,16.866-14.438c0.055-0.729-0.008-1.434-0.048-2.147c13.924-16.292,33.637-51.226,40.13-84.206
		c1.707-8.665,4.321-19.111,7.338-30.278c12.858,5.845,26.659,10.945,41.457,15.222c6.202,14.55,19.317,24.347,34.254,26.54
		c30.754,4.522,95.887-29.628,102.176-25.977c6.305,3.659-36.844,36.939-59.226,40.487c-15.776,2.503-51.06-0.586-70.528-2.63
		c-2.324-6.55-8.514-11.27-15.86-11.27c-9.334,0-16.897,7.564-16.897,16.893c0,9.33,7.563,16.902,16.897,16.902
		c4.879,0,9.239-2.099,12.324-5.41l44.728,8.53l-49.144,32.883c-2.368-1.259-5.029-2.043-7.9-2.043
		c-9.334,0-16.897,7.564-16.897,16.894c0,9.33,7.564,16.901,16.897,16.901c8.186,0,15.009-5.83,16.557-13.559
		c18.418-12.292,55.416-36.242,61.253-34.365c5.156,1.655-11.959,30.167-24.286,49.492c-0.713-0.087-1.418-0.213-2.158-0.213
		c-9.334,0-16.898,7.564-16.898,16.893c0,9.33,7.564,16.902,16.898,16.902c9.33,0,16.893-7.572,16.893-16.902
		c0-2.044-0.42-3.968-1.077-5.774c11.048-17.059,28.298-43.045,36.796-52.462c13.052-14.47,109.945-104.06,115.014-132.018
		C514.324,273.322,497.803,252.311,446.078,252.263z M113.219,103.787c-14.929,0-27.035-12.102-27.035-27.039
		c0-14.929,12.106-27.031,27.035-27.031c14.929,0,27.035,12.102,27.035,27.031C140.254,91.685,128.148,103.787,113.219,103.787z"/>
	<path class="st0" d="M112.542,67.972c-4.85,0-8.787,3.936-8.787,8.783c0,4.855,3.937,8.792,8.787,8.792
		c4.851,0,8.787-3.937,8.787-8.792C121.329,71.908,117.393,67.972,112.542,67.972z"/>
</g>
</svg>